<?xml version="1.0" encoding="UTF-8" standalone="no"?><svg xmlns="http://www.w3.org/2000/svg" xmlns:xlink="http://www.w3.org/1999/xlink" contentScriptType="text/ecmascript" fill="#000000" width="306" zoomAndPan="magnify" contentStyleType="text/css" viewBox="59.6 58.6 306.0 302.5" height="302.5" preserveAspectRatio="xMidYMid meet" version="1"><g id="change1_1"><path fill="#8aa2d4" d="M187.105,155.661c32.271,18.74,65.23,36.537,96.502,56.756c19.148,12.386,39.205,23.596,57.756,36.528 c10.307,7.178,16.711,12.511,2.805,31.083l0.014-0.042c-2.318,4.009-8.672,14.56-10.787,18.077 c-10.623,17.595-14.682,17.072-35.135,8.803c-51.004-20.622-97.393-51.646-145.777-77.8 c-17.531-9.477-58.094-35.355-74.48-44.707c-18.414-10.511,19.361-57.899,32.883-71.101 C115.787,108.479,161.654,140.883,187.105,155.661z"/></g><g id="change1_2"><path fill="#8aa2d4" d="M238.094,155.661c-32.27,18.74-65.23,36.537-96.502,56.756c-19.146,12.386-39.203,23.596-57.756,36.528 c-10.307,7.178-16.711,12.511-2.803,31.083l-0.016-0.042c2.318,4.009,8.674,14.56,10.789,18.077 c10.623,17.595,14.682,17.072,35.135,8.803c51.006-20.622,97.395-51.646,145.775-77.8c17.533-9.477,58.098-35.355,74.482-44.707 c18.412-10.511-19.363-57.899-32.885-71.101C309.416,108.479,263.547,140.883,238.094,155.661z"/></g><g id="change1_3"><path fill="#8aa2d4" d="M173.182,160.099c0.189,37.317-0.781,74.762,1.189,111.947c1.211,22.772,0.949,45.747,2.93,68.276 c1.098,12.513,2.533,20.722,25.564,17.904l-0.045-0.009c4.631-0.016,16.945-0.274,21.049-0.359 c20.549-0.455,22.117-4.233,25.125-26.09c7.502-54.502,3.686-110.179,5.088-165.161c0.508-19.922-1.746-67.984-1.699-86.852 c0.047-21.199-59.857-12.027-78.037-6.871C167.762,74.756,173.033,130.668,173.182,160.099z"/></g><g id="change2_1"><path fill="#ffffff" d="M207.98,206.035c0.021,17.963-0.092,35.984,0.139,53.885c0.143,10.96,0.111,22.019,0.344,32.861 c0.129,6.023,0.297,9.975,2.996,8.618l-0.006-0.004c0.543-0.008,1.986-0.132,2.467-0.173c2.408-0.22,2.592-2.038,2.943-12.559 c0.881-26.233,0.434-53.031,0.598-79.495c0.059-9.589-0.205-32.723-0.199-41.805c0.006-10.203-7.014-5.788-9.145-3.307 C207.346,164.959,207.963,191.87,207.98,206.035z"/></g><g id="change2_2"><path fill="#ffffff" d="M224.422,131.985c-0.838-3.994-5.607-7.396-9.9-8.542c-3.484-0.932-7.531-0.302-10.273,2.207 c-7.496,6.862-2.984,20.2,7.238,20.979C219.6,147.248,226.076,139.841,224.422,131.985z"/></g><g id="change3_5"><path fill="#414370" d="M205.051,213.179c-0.378,0-0.756-0.142-1.048-0.426c-12.199-11.9-17.035-30.013-11.498-43.069 c4.806-11.332,16.366-17.308,32.59-16.837c0.828,0.024,1.479,0.715,1.455,1.543c-0.023,0.828-0.727,1.483-1.543,1.456 c-14.899-0.448-25.451,4.896-29.74,15.01c-5.072,11.962-0.518,28.679,10.832,39.75c0.593,0.579,0.604,1.528,0.026,2.121 C205.831,213.027,205.44,213.179,205.051,213.179z"/></g><g id="change3_6"><path fill="#414370" d="M206.383,300.513c-0.169,0-0.341-0.029-0.509-0.089c-5.159-1.859-8.084-4.654-8.692-8.308 c-1.558-9.34,12.743-20.816,20.426-26.981l1.003-0.807c8.28-6.68,12.312-12.514,12.688-18.361 c0.396-6.162-3.192-12.717-11.999-21.917c-0.572-0.598-0.552-1.548,0.047-2.121c0.598-0.573,1.547-0.553,2.121,0.046 c9.444,9.868,13.28,17.101,12.825,24.184c-0.434,6.744-4.818,13.259-13.798,20.504l-1.009,0.812 c-6.168,4.95-20.613,16.542-19.345,24.147c0.417,2.503,2.688,4.515,6.751,5.979c0.779,0.281,1.184,1.14,0.902,1.919 C207.573,300.133,206.997,300.513,206.383,300.513z"/></g><g id="change3_7"><path fill="#414370" d="M87.716,176.513c-0.026,0-0.053,0-0.079-0.002c-0.827-0.043-1.463-0.749-1.42-1.576 c1.022-19.616,13.602-34.483,24.701-47.6c1.737-2.053,3.378-3.993,4.968-5.938c0.523-0.642,1.47-0.736,2.11-0.212 c0.642,0.524,0.736,1.469,0.212,2.111c-1.604,1.965-3.254,3.914-5,5.977c-10.793,12.755-23.025,27.212-23.995,45.818 C89.171,175.892,88.509,176.513,87.716,176.513z"/></g><g id="change3_4"><path fill="#414370" d="M313.046,299.847c-0.799,0-1.462-0.629-1.498-1.435c-0.036-0.828,0.605-1.528,1.434-1.564 c5.442-0.238,12.954-16.651,17.441-26.458c2.107-4.603,3.927-8.579,5.355-10.844c0.442-0.702,1.369-0.909,2.069-0.468 c0.7,0.442,0.91,1.368,0.468,2.069c-1.322,2.095-3.103,5.986-5.164,10.492c-7.231,15.801-13.299,27.912-20.039,28.207 C313.09,299.846,313.068,299.847,313.046,299.847z"/></g><g id="change3_1"><path fill="#414370" d="M192.381,350.513c-0.828,0-1.5-0.671-1.5-1.5s0.672-1.5,1.5-1.5c15.42,0,29.106-0.651,41.843-1.992 c0.832-0.086,1.563,0.511,1.649,1.335c0.086,0.824-0.512,1.562-1.335,1.648C221.696,349.856,207.906,350.513,192.381,350.513z"/></g><g id="change3_3"><path fill="#414370" d="M342.212,176.846c-0.788,0-1.448-0.614-1.496-1.41c-0.715-11.88-16.3-39.688-29.901-49.89 c-0.662-0.498-0.797-1.438-0.3-2.1c0.498-0.663,1.438-0.796,2.101-0.3c13.409,10.058,30.265,38.305,31.095,52.11 c0.05,0.827-0.58,1.538-1.407,1.587C342.272,176.845,342.242,176.846,342.212,176.846z"/></g><g id="change3_2"><path fill="#414370" d="M181.715,83.847c-0.825,0-1.496-0.667-1.5-1.494c-0.004-0.829,0.665-1.503,1.494-1.506 c6.101-0.025,12.527-1.075,19.331-2.186c12.997-2.122,26.438-4.317,37.968,0.99c0.753,0.347,1.082,1.237,0.735,1.99 c-0.347,0.753-1.238,1.081-1.989,0.736c-10.698-4.924-23.678-2.804-36.23-0.754c-6.619,1.081-13.464,2.199-19.803,2.225 C181.719,83.847,181.717,83.847,181.715,83.847z"/></g><g id="change3_8"><path fill="#414370" d="M111.715,300.514c-0.162,0-0.326-0.026-0.488-0.082c-7.06-2.431-27.315-32.567-29.606-39.622 c-0.256-0.788,0.176-1.634,0.964-1.89c0.786-0.257,1.633,0.176,1.89,0.963c2.229,6.863,22.139,35.786,27.729,37.711 c0.783,0.27,1.2,1.124,0.93,1.907C112.919,300.123,112.337,300.514,111.715,300.514z"/></g></svg>